<svg xmlns="http://www.w3.org/2000/svg" xmlns:xlink="http://www.w3.org/1999/xlink" width="377" zoomAndPan="magnify" viewBox="0 0 283.5 283.500005" height="377" preserveAspectRatio="xMidYMid meet" version="1.0"><defs><clipPath id="77d051927f"><path d="M 14.171875 44.789062 L 135 44.789062 L 135 239 L 14.171875 239 Z M 14.171875 44.789062 " clip-rule="nonzero"/></clipPath><clipPath id="240658a7e6"><path d="M 146 44.789062 L 269.171875 44.789062 L 269.171875 239 L 146 239 Z M 146 44.789062 " clip-rule="nonzero"/></clipPath></defs><g clip-path="url(#77d051927f)"><path fill="#d3ad7f" d="M 80.160156 127.925781 C 68.097656 127.925781 57 131.953125 48.027344 138.664062 C 48.910156 110.660156 70.507812 82.644531 113.125 54.621094 L 106.800781 44.789062 C 45.050781 83.242188 14.175781 125.445312 14.175781 171.390625 C 14.175781 192.488281 19.902344 209.023438 31.367188 220.96875 C 42.824219 232.933594 57.332031 238.902344 74.871094 238.902344 C 92.421875 238.902344 106.566406 234.101562 117.328125 224.488281 C 128.085938 214.882812 133.46875 203.265625 133.46875 189.675781 C 133.46875 189.523438 133.441406 189.410156 133.441406 189.25 C 133.769531 186.835938 134.003906 184.402344 134.003906 181.882812 C 134.003906 152.09375 109.886719 127.925781 80.160156 127.925781 Z M 80.160156 127.925781 " fill-opacity="1" fill-rule="nonzero"/></g><g clip-path="url(#240658a7e6)"><path fill="#d3ad7f" d="M 254.246094 219.140625 C 254.941406 218.335938 255.785156 217.566406 256.425781 216.722656 C 264.355469 207.320312 269.171875 195.179688 269.171875 181.886719 C 269.171875 152.09375 245.0625 127.921875 215.335938 127.921875 C 201.71875 127.921875 189.320312 133.027344 179.835938 141.390625 C 179.835938 141.058594 179.78125 140.777344 179.78125 140.433594 C 179.78125 111.835938 201.53125 83.222656 245.046875 54.617188 L 238.726562 44.789062 C 176.972656 83.242188 146.09375 125.445312 146.09375 171.398438 C 146.09375 192.5 151.820312 209.03125 163.292969 220.976562 C 174.746094 232.941406 189.25 238.917969 206.792969 238.917969 C 224.332031 238.917969 238.492188 234.109375 249.25 224.488281 C 250.769531 223.148438 251.953125 221.640625 253.253906 220.199219 C 253.597656 219.859375 253.90625 219.5 254.246094 219.140625 Z M 254.246094 219.140625 " fill-opacity="1" fill-rule="nonzero"/></g></svg>