<svg id="visual" viewBox="0 0 675 900" width="675" height="900" xmlns="http://www.w3.org/2000/svg" xmlns:xlink="http://www.w3.org/1999/xlink" version="1.1"><path d="M0 671L18.8 666.8C37.7 662.7 75.3 654.3 112.8 646.7C150.3 639 187.7 632 225.2 633.5C262.7 635 300.3 645 337.8 638.3C375.3 631.7 412.7 608.3 450.2 588.5C487.7 568.7 525.3 552.3 562.8 527.8C600.3 503.3 637.7 470.7 656.3 454.3L675 438L675 901L656.3 901C637.7 901 600.3 901 562.8 901C525.3 901 487.7 901 450.2 901C412.7 901 375.3 901 337.8 901C300.3 901 262.7 901 225.2 901C187.7 901 150.3 901 112.8 901C75.3 901 37.7 901 18.8 901L0 901Z" fill="#ffffff"></path><path d="M0 597L18.8 576.8C37.7 556.7 75.3 516.3 112.8 499.2C150.3 482 187.7 488 225.2 508.7C262.7 529.3 300.3 564.7 337.8 569.5C375.3 574.3 412.7 548.7 450.2 565.2C487.7 581.7 525.3 640.3 562.8 632.7C600.3 625 637.7 551 656.3 514L675 477L675 901L656.3 901C637.7 901 600.3 901 562.8 901C525.3 901 487.7 901 450.2 901C412.7 901 375.3 901 337.8 901C300.3 901 262.7 901 225.2 901C187.7 901 150.3 901 112.8 901C75.3 901 37.7 901 18.8 901L0 901Z" fill="#c6c6c6"></path><path d="M0 696L18.8 678.5C37.7 661 75.3 626 112.8 635.7C150.3 645.3 187.7 699.7 225.2 703.7C262.7 707.7 300.3 661.3 337.8 648.8C375.3 636.3 412.7 657.7 450.2 647.7C487.7 637.7 525.3 596.3 562.8 589.8C600.3 583.3 637.7 611.7 656.3 625.8L675 640L675 901L656.3 901C637.7 901 600.3 901 562.8 901C525.3 901 487.7 901 450.2 901C412.7 901 375.3 901 337.8 901C300.3 901 262.7 901 225.2 901C187.7 901 150.3 901 112.8 901C75.3 901 37.7 901 18.8 901L0 901Z" fill="#919191"></path><path d="M0 650L18.8 670.2C37.7 690.3 75.3 730.7 112.8 731.8C150.3 733 187.7 695 225.2 694.5C262.7 694 300.3 731 337.8 746.3C375.3 761.7 412.7 755.3 450.2 762.7C487.7 770 525.3 791 562.8 769.3C600.3 747.7 637.7 683.3 656.3 651.2L675 619L675 901L656.3 901C637.7 901 600.3 901 562.8 901C525.3 901 487.7 901 450.2 901C412.7 901 375.3 901 337.8 901C300.3 901 262.7 901 225.2 901C187.7 901 150.3 901 112.8 901C75.3 901 37.7 901 18.8 901L0 901Z" fill="#5e5e5e"></path><path d="M0 741L18.8 754.3C37.7 767.7 75.3 794.3 112.8 789.3C150.3 784.3 187.7 747.7 225.2 725.8C262.7 704 300.3 697 337.8 705.5C375.3 714 412.7 738 450.2 752.5C487.7 767 525.3 772 562.8 763.8C600.3 755.7 637.7 734.3 656.3 723.7L675 713L675 901L656.3 901C637.7 901 600.3 901 562.8 901C525.3 901 487.7 901 450.2 901C412.7 901 375.3 901 337.8 901C300.3 901 262.7 901 225.2 901C187.7 901 150.3 901 112.8 901C75.3 901 37.7 901 18.8 901L0 901Z" fill="#303030"></path><path d="M0 837L18.8 834.5C37.7 832 75.3 827 112.8 822C150.3 817 187.7 812 225.2 805.8C262.7 799.7 300.3 792.3 337.8 800.2C375.3 808 412.7 831 450.2 847.3C487.7 863.7 525.3 873.3 562.8 865.7C600.3 858 637.7 833 656.3 820.5L675 808L675 901L656.3 901C637.7 901 600.3 901 562.8 901C525.3 901 487.7 901 450.2 901C412.7 901 375.3 901 337.8 901C300.3 901 262.7 901 225.2 901C187.7 901 150.3 901 112.8 901C75.3 901 37.7 901 18.8 901L0 901Z" fill="#000000"></path></svg>